<svg width="107" height="125" viewBox="0 0 107 125" fill="none" xmlns="http://www.w3.org/2000/svg">
<g clip-path="url(#clip0_1204_687)">
<path d="M72.3341 96.1686C72.3172 96.3133 72.0812 96.5592 71.9295 96.5592C70.9856 96.6026 70.0417 96.5882 69.1146 96.5882C69.0809 96.458 69.0303 96.3422 68.9966 96.212C70.0585 95.6912 71.1204 95.1848 72.3509 94.5771C72.3509 95.2137 72.3846 95.6912 72.3509 96.1686H72.3341Z" fill="#B4BEFE"/>
<path d="M20.0803 93.5932C19.524 93.9838 19.0183 94.548 18.361 94.7217C17.0967 95.0689 15.7651 95.2136 14.4503 95.3872C14.0964 95.4306 13.7255 95.2859 13.3547 95.257C13.0513 95.2136 12.6973 95.1412 12.4276 95.228C11.7365 95.445 11.5005 95.1268 11.5848 94.6493C11.7028 94.114 11.4331 94.0127 10.9106 93.9404C9.0564 93.7234 8.12931 92.5226 7.28651 91.2783C7.18537 91.1337 7.42136 90.5984 7.64049 90.526C8.23045 90.3235 8.88784 90.2656 9.83178 90.1064C11.5848 90.5839 13.5401 91.1047 15.4954 91.64C16.1697 91.8281 16.8439 92.0451 17.535 92.2477C17.9396 92.3634 18.4284 92.3924 18.7655 92.5949C19.2543 92.8698 19.642 93.2604 20.0803 93.5932Z" fill="#B4BEFE"/>
<path d="M27.5981 99.2653C27.5981 99.3666 27.5981 99.4534 27.5813 99.5402C26.0811 99.7717 24.5977 100.003 23.0807 100.206C22.929 100.22 22.7436 100.047 22.575 99.9598C22.6761 99.8151 22.7604 99.5836 22.8953 99.5547C23.401 99.4245 23.9235 99.2942 24.446 99.2798C25.4911 99.2364 26.553 99.2653 27.5981 99.2653Z" fill="#B4BEFE"/>
<path d="M48.1626 96.8477C47.7244 97.1081 47.3198 97.4553 46.831 97.6289C46.1736 97.8604 45.4488 98.0774 44.7577 98.1064C41.9427 98.2366 39.3469 99.148 36.6331 99.6833C36.1779 99.7701 35.706 99.7557 35.234 99.8136C34.9137 99.857 34.5598 99.9148 34.2564 100.016C33.0596 100.436 31.8796 100.913 30.6829 101.304C29.8906 101.564 29.0815 101.767 28.2724 101.955C27.9016 102.042 27.4971 102.013 26.806 102.071C27.1599 101.651 27.3117 101.405 27.5139 101.217C29.2164 99.5097 31.4245 98.931 33.9698 98.8297C36.1274 98.7285 38.2681 98.4536 40.2908 97.6144C41.3191 97.1949 42.5833 97.137 43.7463 96.9634C45.1454 96.7609 46.5613 96.6162 47.9772 96.457C48.0446 96.5872 48.0952 96.7174 48.1626 96.8477Z" fill="#B4BEFE"/>
<path d="M50.9776 93.3906C50.6236 94.331 50.1854 94.6059 49.1571 94.3744C46.831 93.8246 44.5217 93.2459 42.1956 92.6527C41.8753 92.5659 41.5719 92.3489 41.2685 92.1898C41.2685 92.103 41.2853 92.0162 41.2853 91.9293C41.9596 91.8136 42.6338 91.6834 43.3081 91.5821C44.8757 91.3217 46.2747 91.7268 47.6907 92.3489C48.702 92.7829 49.8314 93.0289 50.9776 93.3906Z" fill="#B4BEFE"/>
<path d="M54.8713 98.9463C54.8039 99.0476 54.7533 99.1633 54.6859 99.2791C53.9442 99.0186 53.2194 98.7293 52.4609 98.4833C52.1912 98.411 51.8035 98.3821 51.5844 98.4833C50.7079 98.9318 49.8988 99.4527 49.0223 99.9156C48.7694 100.046 48.4323 100.075 48.1458 100.147C48.2132 99.8867 48.1963 99.5105 48.3986 99.3948C49.2751 98.845 50.1516 98.2952 51.1124 97.8757C51.7361 97.6008 52.4103 97.6153 52.9666 98.2229C53.1857 98.4689 53.7083 98.5412 54.0959 98.6859C54.3488 98.7727 54.6185 98.8595 54.8713 98.9463Z" fill="#B4BEFE"/>
<path d="M64.4457 88.5303C64.0917 89.2103 63.8051 89.7456 63.5354 90.2809C63.2994 90.7872 63.114 91.3226 62.878 91.8289C62.7938 91.9881 62.6252 92.1327 62.4566 92.234C59.9619 93.9846 56.9784 94.4621 53.8938 94.7225C53.6072 94.7369 53.3038 94.6357 53.0172 94.5923C52.9667 94.5055 52.933 94.4331 52.8824 94.3608C53.6578 93.7676 54.3994 93.131 55.2254 92.6102C56.4053 91.8868 57.6021 91.1923 58.9 90.6426C59.6417 90.3387 60.5856 90.3532 61.8498 90.1651C62.2375 89.6154 62.7769 88.675 64.4457 88.5303Z" fill="#B4BEFE"/>
<path d="M5.80319 88.0824C5.63463 88.1837 5.31436 88.2415 5.1458 88.1692C4.43785 87.8654 4.15129 88.2415 3.8816 88.6611C3.29163 89.6449 2.24656 90.079 1.13406 90.4117C1.04978 90.3683 0.965496 90.3104 0.898071 90.267C1.21834 89.5002 1.57231 88.7334 1.85887 87.9522C1.97686 87.6773 2.11171 87.2867 1.97686 87.0841C1.65659 86.6356 1.52175 86.1293 2.01057 85.8688C2.46569 85.6229 3.32535 85.4203 3.62876 85.6229C4.4547 86.1582 5.07838 86.896 5.75262 87.576C5.85376 87.6918 5.88747 88.039 5.80319 88.0824Z" fill="#B4BEFE"/>
<path d="M43.7798 35.7523C42.8358 36.1718 40.1726 35.0289 39.4646 33.9004C41.7739 34.3634 43.4763 34.7685 43.7798 35.7523Z" fill="#B4BEFE"/>
<path d="M37.4758 33.682C37.2903 33.7688 37.1049 33.8556 36.9027 33.9135C36.161 34.116 35.3688 34.0871 34.7956 34.8105C34.4417 35.2734 32.1492 34.6658 31.9301 34.2607C33.7 34.0292 35.4867 33.7832 37.2735 33.5518L37.4758 33.682Z" fill="#B4BEFE"/>
<path d="M31.0536 34.6094C30.4805 35.5208 29.9748 36.5481 28.4915 36.8519C28.1543 36.9242 27.9352 37.3293 27.6149 37.5174C27.3284 37.6765 26.9913 37.7923 26.6541 37.8502C26.553 37.8646 26.2327 37.5463 26.2665 37.4885C26.4182 37.257 26.6036 36.9966 26.8564 36.8663C28.2555 36.0851 29.6714 35.3472 31.0536 34.6094Z" fill="#B4BEFE"/>
<path d="M32.2 38.9336C31.8966 40.3514 31.8966 42.0731 29.9581 42.8688C29.5704 42.6084 29.2164 42.348 28.8119 42.131C28.3568 41.885 28.1882 41.5812 28.559 41.205C28.8962 40.8723 29.2839 40.554 29.7053 40.308C30.5312 39.8161 31.4077 39.3676 32.2 38.9336Z" fill="#B4BEFE"/>
<path d="M51.9889 14.6427C51.8203 14.99 51.1966 15.3372 50.7584 15.3661C50.3033 15.3951 49.511 15.67 49.3088 14.9032C48.9379 15.0044 48.5502 15.0912 48.1794 15.207C47.758 15.3517 47.2186 15.7278 46.9489 15.6121C46.3421 15.3661 46.6286 14.8598 46.9826 14.5415C47.4546 14.1219 47.994 13.7747 48.5671 13.3551C48.4997 13.2249 48.3817 13.0224 48.1794 12.6462C48.6682 12.6462 49.0053 12.6317 49.3593 12.6607C49.7639 12.6896 50.1516 12.7909 50.5561 12.8343C51.7697 12.9211 52.4271 13.6589 51.9889 14.6427Z" fill="#B4BEFE"/>
<path d="M54.8375 23.1215C54.8375 23.1215 54.6858 23.4543 54.5678 23.4687C53.4216 23.6423 52.2585 23.8594 50.8763 23.2372C51.3315 23.0202 51.5674 22.8032 51.8203 22.7887C52.6631 22.7309 53.5059 22.7309 54.3487 22.7453C54.5173 22.7598 54.7364 22.9624 54.8375 23.1215Z" fill="#B4BEFE"/>
<path d="M55.1748 18.8671C54.7703 19.5037 54.4163 20.1692 53.9106 20.7334C53.7926 20.8636 53.0678 20.7624 52.7813 20.5887C52.0227 20.1402 51.3485 19.576 50.59 19.0262C52.1407 17.7531 53.4892 17.7097 54.8883 18.6645C54.9894 18.7369 55.1748 18.8526 55.1748 18.8671Z" fill="#B4BEFE"/>
<path d="M68.0864 13.3265C67.7998 13.8184 67.6481 14.3971 67.5807 14.9469C67.5301 15.2941 67.7155 15.6558 67.8167 16.003C67.8841 16.249 67.9684 16.4805 68.0358 16.7264C68.1032 17.0013 68.1707 17.2762 68.2212 17.5511C68.2549 17.7247 68.3224 17.9273 68.2549 18.0864C67.783 19.2438 67.429 20.4446 66.7379 21.5153C66.0299 22.6293 65.0186 23.5986 64.1421 24.6258C64.0072 24.7705 63.7038 24.8863 63.7038 25.0309C63.6532 26.4777 62.0856 26.8105 61.108 27.5483C60.6529 27.8955 60.5686 28.0836 61.0911 28.4019C61.2597 28.5177 61.3777 28.7202 61.5125 28.8794C61.2934 28.9806 61.0405 29.0674 60.8383 29.2121C60.5686 29.4002 60.1977 29.5883 60.0966 29.8342C59.5066 31.3099 59.001 32.8146 58.411 34.2758C58.0907 35.0282 57.4333 35.549 56.5568 35.8673C56.5063 35.8818 56.4388 35.8962 56.3883 35.9252C56.0849 36.0988 55.6466 36.4894 55.4949 36.4171C54.9555 36.1856 54.4667 35.8239 54.0621 35.4333C53.7419 35.1439 53.5733 34.7388 53.3373 34.406C53.2025 34.218 53.0508 33.9286 52.8822 33.9141C51.4326 33.7695 51.6854 32.612 51.2134 31.9031C51.0955 31.744 51.0955 31.4836 50.9438 31.3967C49.039 30.1815 49.0053 28.0258 47.6231 26.5356C47.4714 26.3764 47.4883 25.9279 47.64 25.7543C47.8422 25.5662 48.2636 25.436 48.5839 25.436C48.9379 25.4216 49.3087 25.653 49.6627 25.6675C50.2527 25.6964 50.9775 25.8122 51.4157 25.5807C52.6462 24.9441 53.6744 25.7254 53.9778 26.6513C54.2307 27.4181 54.9555 27.8521 55.8489 27.5773C56.0006 27.5339 56.1017 27.1866 56.1017 26.9841C56.0849 26.8249 55.8489 26.6947 55.5792 26.4198C56.8434 26.1594 57.9896 25.7254 59.1358 25.7254C60.5686 25.7254 61.3608 25.0454 61.9002 24.1629C62.3385 23.4539 62.4902 22.5859 62.6587 21.7612C62.7936 21.0812 62.4059 20.9221 61.3271 21.0523C61.1922 21.5008 61.0743 21.9204 60.9394 22.3544H60.518C60.1977 21.5297 61.2597 20.271 59.3212 19.9383C59.4392 19.8659 59.5403 19.8081 59.6583 19.7357C60.2652 19.6634 60.8551 19.591 61.5125 19.5187C61.5968 19.8949 61.6642 20.1987 61.7654 20.6617C62.8947 19.6634 63.2487 18.6072 62.979 17.4498C62.743 16.3937 62.6419 15.3086 61.8833 14.3248C61.2428 13.5001 61.0743 12.4295 60.6529 11.4746C60.5349 11.1708 60.2989 10.9104 60.0966 10.6355C59.2369 9.52148 59.2201 9.14532 60.1472 7.95896C58.6975 7.42366 57.3153 6.91728 55.95 6.41091C55.8152 6.35304 55.6972 6.25177 55.596 6.16496C54.7869 5.52838 54.0116 5.68752 53.5902 6.58452C53.5564 6.67133 53.489 6.75814 53.3879 6.91728C53.3205 6.74367 53.253 6.67133 53.2699 6.61346C53.5396 5.55731 53.3373 5.35476 52.0731 5.57178C51.3652 5.70199 50.6909 5.89007 49.9998 6.07815C49.8312 6.12156 49.6121 6.2373 49.5616 6.35304C49.2076 7.39472 48.4322 8.11811 47.3871 8.68235C47.3028 8.74022 47.2523 8.85596 47.1848 8.94277C49.2244 8.98617 49.7638 7.36578 50.8932 6.43985C50.9775 6.48325 51.0786 6.52665 51.1629 6.57006C51.028 6.87388 50.9606 7.20664 50.7583 7.43812C50.0335 8.26279 49.3256 9.07298 48.5165 9.8253C47.6568 10.621 46.6792 11.33 45.7689 12.0967C45.5835 12.2414 45.3812 12.4729 45.3644 12.661C45.3475 13.7171 45.3475 14.7588 45.415 15.8005C45.4824 17.2473 45.6004 18.694 45.6847 20.1264C45.6847 20.2566 45.6678 20.4157 45.6004 20.517C45.3138 20.98 45.0104 21.4429 44.707 21.8625C46.0723 22.7595 46.2746 24.9152 45.2464 26.2028C44.5384 25.436 43.5439 24.8284 44.1676 23.6276C44.2856 23.3816 43.999 22.9331 43.7968 22.6148C43.2068 21.6455 42.5326 20.7051 41.9595 19.7213C41.4706 18.8966 41.3864 17.7247 39.5996 18.1009C39.6333 17.9996 39.667 17.8983 39.7176 17.797C40.0379 17.7102 40.3581 17.6234 40.6784 17.5511C40.257 16.4515 40.2739 15.4388 41.6729 14.7299C41.8415 14.6286 41.8752 14.238 41.8752 13.992C41.8583 13.5725 41.7572 13.1384 41.7066 12.7044C41.6055 11.9231 41.5886 11.1853 42.5663 10.6644C42.9708 10.4619 43.19 9.92658 43.3417 9.50701C43.4428 9.27553 43.3079 8.76916 43.1562 8.74022C42.4989 8.58108 42.364 8.19045 42.5326 7.75641C42.6337 7.49599 43.0382 7.32238 43.3922 7.03303C43.3417 6.51219 43.4091 5.94794 44.471 6.07815C44.589 6.09262 44.7744 5.81773 44.8924 5.67306C45.4318 5.06541 45.8701 4.38542 46.4937 3.85012C47.3871 3.06886 48.4153 2.43227 49.3424 1.66548C49.629 1.434 49.6795 0.985498 49.9324 0.681675C50.1009 0.464658 50.4044 0.160835 50.6235 0.175303C51.0786 0.175303 51.4494 0.435723 50.8595 0.869756C51.2977 0.985498 51.6011 1.05784 51.8708 1.13018C52.0394 1.81016 51.0786 2.56248 52.0731 3.17013C52.3259 2.79397 52.5451 2.49015 52.7474 2.17185C52.8316 2.17185 52.9159 2.17185 53.0002 2.17185C52.7811 3.12673 53.3205 3.43055 54.2644 3.43055C54.8375 3.44502 55.3095 3.56076 55.4106 4.16841C55.4443 4.31309 55.7309 4.50117 55.9163 4.54457C56.776 4.71818 57.6188 4.84839 58.5627 5.00754C58.4447 4.66031 58.3604 4.37096 58.2424 4.0382C59.4898 3.64757 59.6921 4.83392 60.5517 4.99307C61.1754 4.5301 61.344 4.50117 61.8496 5.13775C62.3216 5.70199 62.7767 5.97688 63.569 5.70199C63.7207 5.64412 63.9566 5.67306 64.1252 5.71646C64.26 5.75986 64.3443 5.90454 64.4455 6.00581C64.3106 6.04922 64.1758 6.10709 64.0409 6.15049C63.9229 6.17943 63.8218 6.17943 63.7038 6.20836C63.7038 6.2807 63.7038 6.36751 63.6869 6.45432C64.2263 6.49772 64.7657 6.54112 65.3894 6.59899C64.9006 7.32238 65.2377 8.0313 65.8445 8.50874C66.5356 8.61001 67.0413 8.68235 67.547 8.75469C67.547 8.81256 67.5638 8.87043 67.5638 8.9283C67.7155 8.8415 67.8504 8.75469 68.0021 8.68235C68.5752 8.37853 68.9123 8.52321 68.9123 9.08745C68.9292 9.34787 68.8112 9.60829 68.7438 9.86871C68.6763 10.1581 68.4572 10.5053 68.5752 10.7223C69.0977 11.7061 68.5752 12.4729 68.0864 13.312V13.3265Z" fill="#B4BEFE"/>
<path d="M56.658 22.5708C56.6074 22.6576 56.5737 22.7444 56.5231 22.8313C55.1241 21.7606 53.4385 21.6594 51.736 21.6304C52.7305 21.3845 53.6576 21.1096 54.7027 21.5002C55.3769 21.7462 56.3209 21.4713 56.6074 22.3393C56.6411 22.4117 56.6411 22.4985 56.658 22.5708Z" fill="#B4BEFE"/>
<path d="M60.9226 15.4238C60.7034 16.0025 59.9955 16.2195 59.2032 15.8723C58.7144 15.6552 58.2593 15.3514 57.8548 15.0331C57.4334 14.6859 57.1974 14.6425 56.6917 15.0331C56.2871 15.3514 55.5286 15.6263 55.0229 15.554C54.2476 15.4238 53.9779 14.7727 54.0453 14.0783C54.1633 12.9353 54.2307 12.8919 55.6298 12.8051C56.304 12.7617 56.9782 12.6749 57.7536 12.6025C57.6862 12.8919 57.6356 13.0655 57.5851 13.297C58.3604 13.5285 59.1527 13.7744 59.9449 13.9914C60.6697 14.194 61.1248 14.845 60.9226 15.4238Z" fill="#B4BEFE"/>
<path d="M66.0468 47.7161C64.968 47.9186 64.2095 48.1935 63.451 48.1935C62.6082 48.179 61.6137 48.1067 60.9394 47.7161C59.8101 47.065 58.883 46.1391 57.6356 45.1553C58.1919 45.2276 58.5121 45.2276 58.7818 45.3144C59.4224 45.5314 60.0292 45.8497 60.6697 46.0233C61.226 46.168 61.8328 46.2114 62.4227 46.2259C62.9116 46.2259 63.5352 45.9365 63.8555 46.1101C64.6309 46.5297 65.2883 47.1374 66.0468 47.7161Z" fill="#B4BEFE"/>
<path d="M63.0127 45.0257C62.6251 45.1125 62.2205 45.3006 61.8328 45.2861C59.4561 45.2282 57.7031 43.9985 55.9501 42.8121C54.5847 41.9006 53.2531 40.9313 51.3483 40.9747C51.2978 41.1483 51.2641 41.3219 51.1966 41.5968C50.6067 41.2062 50.0673 40.9024 49.6122 40.5117C49.2413 40.1934 48.9885 39.7594 48.6851 39.3832C48.4997 39.1518 48.3817 38.7467 47.876 39.1084C47.8423 39.1373 47.6232 39.0649 47.5726 38.9926C46.1735 37.3867 44.7913 35.7808 43.3923 34.1748C43.4934 34.088 43.5945 34.0157 43.6957 33.9434C44.4205 34.3485 45.1622 34.7391 45.887 35.1876C48.1288 36.562 50.3875 37.9654 52.6294 39.3688C52.7305 39.4266 52.8485 39.499 52.9665 39.5135C55.7646 39.8751 57.7705 41.5389 60.0629 42.7398C60.8889 43.1738 61.6643 43.6802 62.4059 44.2155C62.6925 44.4036 62.8105 44.7508 63.0127 45.0257Z" fill="#B4BEFE"/>
<path d="M71.8285 97.8464C71.2216 98.5843 70.7328 99.38 69.5866 99.6983C69.0135 99.8575 68.4404 100.19 68.1707 100.87C67.8336 101.767 65.794 102.274 64.8332 101.796C65.5074 101.333 66.0974 100.754 66.8559 100.465C67.665 100.161 67.6819 99.6838 67.9347 98.8881C66.2491 99.2498 64.8163 99.5681 63.3836 99.8864C63.333 99.8285 63.2824 99.7851 63.2318 99.7272C63.6701 99.4234 64.0578 99.0617 64.5466 98.8302C65.558 98.3094 66.7211 97.9477 66.957 96.7614C66.9908 96.6022 67.2099 96.4286 67.3784 96.3418C68.6089 95.7052 69.8394 95.0686 71.1036 94.4899C71.643 94.244 72.0982 94.0703 71.7947 93.3904C71.2553 93.564 70.7834 93.7376 70.2945 93.9112C70.6317 93.318 71.0362 92.8551 71.4745 92.4066C71.8116 92.0738 72.1993 91.7844 72.5533 91.4517C72.6881 91.307 72.7724 91.1189 72.8904 90.9453C72.6375 90.9598 72.3678 90.9164 72.1487 90.9887C71.9633 91.0611 71.8453 91.2636 71.6936 91.3938C70.0248 92.7827 68.4572 94.2874 66.6368 95.4882C65.5074 96.226 64.5803 97.6149 62.6925 97.1375C62.5407 97.1086 62.2879 97.2677 62.1193 97.3979C61.6474 97.7307 61.1923 98.1213 60.7034 98.4396C60.3157 98.6856 59.8775 98.9605 59.4224 99.0473C58.6976 99.1919 57.9222 99.1341 57.1974 99.2787C56.6243 99.3945 55.9837 99.597 55.5455 99.9298C54.3318 100.856 53.2868 101.941 52.0394 102.823C50.7078 103.764 49.3087 104.661 47.8085 105.37C45.8027 106.31 43.7125 107.106 41.6055 107.858C39.8862 108.48 38.1163 109.059 36.2958 109.406C35.217 109.623 34.3068 109.884 33.5314 110.578C32.9415 111.099 32.2504 111.518 31.5593 111.953C31.239 112.141 30.8513 112.242 30.4805 112.387C30.4468 112.329 30.3962 112.256 30.3625 112.184C30.7333 111.909 31.1042 111.649 31.475 111.359C31.9975 110.94 32.5538 110.535 33.0258 110.072C33.228 109.884 33.4134 109.45 33.2955 109.29C33.1269 109.073 32.6886 108.9 32.3684 108.914C31.3064 108.943 30.2445 109.073 29.1826 109.16C27.3115 109.319 25.4405 109.652 23.5864 109.609C21.7153 109.551 19.8612 109.16 18.0238 108.856C15.9 108.495 13.8098 108.075 11.7197 107.67C11.568 107.641 11.45 107.54 11.2983 107.482C10.4723 107.135 9.66323 106.701 8.78672 106.455C7.4888 106.093 6.07289 105.992 5.38179 104.748C5.34808 104.69 5.19637 104.675 4.96039 104.588C5.33122 105.688 6.08975 106.368 6.99997 106.961C8.24732 107.757 9.73066 107.844 11.1971 108.017C13.0513 108.22 13.9615 109.319 13.3716 110.81C13.1019 111.49 12.6805 112.126 12.2759 112.748C11.686 113.631 11.1803 114.47 11.4837 115.555C11.6691 116.163 11.5848 116.828 11.568 117.465C11.5005 119.215 11.1803 120.966 11.3488 122.688C11.4163 123.397 11.5511 124.091 11.7028 124.785H20.2826C20.6197 124.105 20.9737 123.425 21.3276 122.745C22.2379 121.038 23.4178 119.461 25.7271 118.912C27.1767 118.55 28.5926 118.174 29.7557 117.291C29.9748 117.118 30.3119 117.045 30.6153 117.002C32.9583 116.698 35.1833 116.076 37.3241 115.208C37.8129 115.005 38.4028 114.557 38.9591 115.208C39.0265 115.295 39.3299 115.266 39.4985 115.208C40.4761 114.976 41.4538 114.745 42.4314 114.499C43.7125 114.181 44.943 114.108 45.8364 115.106C46.2241 115.526 46.3421 116.119 46.6455 116.611C47.2186 117.523 47.1343 118.535 46.696 119.331C45.9712 120.691 46.3252 121.979 46.5106 123.295C46.5275 123.44 46.9657 123.686 47.168 123.657C47.6063 123.599 47.994 123.382 48.4154 123.223C48.6345 122.109 49.0222 121.038 49.5447 120.026C49.7301 119.707 50.3032 119.534 50.7752 119.259C50.8595 119.49 50.9606 119.591 50.9438 119.678C50.6235 121.487 50.101 123.208 49.0896 124.785H50.3201C50.6741 123.671 51.0449 122.557 51.736 121.53C52.2585 120.749 52.444 120.561 53.3542 121.053C53.7756 121.284 54.1127 121.328 54.3487 120.908C54.8375 120.054 55.3095 119.186 55.7815 118.318C55.8152 118.26 55.7478 118.174 55.714 118.101C55.4275 118.13 55.1578 118.159 54.5847 118.217C55.2421 117.349 55.596 116.481 56.304 116.032C57.1974 115.497 57.5682 114.846 57.8042 114.021C57.9559 113.515 58.0402 113.153 57.1974 113.197C56.7254 113.226 56.5231 112.994 56.8603 112.647C57.6862 111.793 58.5459 110.969 59.5235 109.999C59.5741 110.39 59.6752 110.665 59.6078 110.925C59.2707 112.459 59.0178 114.007 58.4953 115.497C57.6019 118.015 56.54 120.489 55.4949 122.962C55.2421 123.57 54.9724 124.178 54.7195 124.785H59.6921C59.8943 124.134 60.0629 123.483 60.2652 122.847C60.5517 121.935 60.8551 121.024 61.1248 120.112C61.2934 119.548 61.4114 118.984 61.5631 118.42C60.1978 119.953 60.1978 122.051 58.4953 123.454C58.3942 122.905 58.411 122.384 58.5121 121.892C58.765 120.734 58.7481 119.563 59.4561 118.477C60.1135 117.479 60.1303 116.322 59.9449 115.164C59.8775 114.644 60.0966 114.079 60.1809 113.544C60.2146 113.356 60.2483 113.182 60.2989 112.994C60.6529 111.736 61.0237 110.462 61.4282 109.218C61.4788 109.059 61.7822 108.842 61.9508 108.856C62.625 108.9 63.2824 109.016 64.1589 109.146C63.9735 110.535 63.7712 112.025 63.569 113.515C63.6364 113.544 63.7207 113.558 63.7881 113.587C66.7211 108.249 69.654 102.925 72.587 97.586C72.5195 97.5281 72.4521 97.4847 72.3847 97.4269C72.1993 97.5716 71.9633 97.6873 71.8285 97.8464Z" fill="#B4BEFE"/>
<path d="M106.451 92.5229V94.3024C105.49 95.4309 104.496 95.1271 103.265 94.5628C97.9555 92.1467 92.5953 89.8464 87.2687 87.4736C86.6114 87.1843 86.1057 87.1409 85.4314 87.4881C84.2515 88.0813 83.2233 87.8064 82.3973 86.866C82.2793 86.7213 81.9928 86.649 81.7737 86.6056C81.5714 86.5622 81.268 86.6924 81.1331 86.6056C79.7846 85.8099 78.2676 85.1588 77.4585 83.8278C77.2899 83.5529 77.1551 83.1912 76.8685 83.061C75.4021 82.3521 73.885 81.701 72.368 81.0355C72.25 80.9776 72.0983 80.9776 71.778 80.9197C72.2331 81.9904 72.7051 82.8295 73.8682 83.3069C75.2672 83.8712 76.0763 84.8694 76.3291 86.1715C76.4471 86.8081 76.1269 87.2277 75.4526 87.4736C75.1155 87.8643 74.2727 87.8209 71.5083 87.3579C68.963 86.9239 68.3225 86.7503 67.4965 86.62C67.1257 86.5622 66.7717 86.5332 66.4009 86.5188C66.0469 86.5043 65.693 86.5043 65.3221 86.5332C64.5973 86.5766 63.8388 86.6924 62.9791 86.866C62.76 86.9094 62.5409 86.9528 62.3217 87.0107C61.2261 87.2566 59.9787 87.5749 58.4617 87.98C57.4672 88.2404 56.7087 88.4575 56.1018 88.6455C55.9838 88.6745 55.8827 88.7034 55.7816 88.7323C54.3825 89.1519 53.8768 89.2821 53.0172 89.0796C50.9944 88.6021 48.7526 86.6056 48.9886 84.0303C49.2246 81.5274 52.2418 80.2832 53.8768 79.6032C55.7984 78.793 57.5178 78.6772 58.7482 78.6194C59.8607 78.5615 62.7937 78.5036 66.0638 79.7189C66.502 79.8781 66.8055 80.0227 67.0414 80.153C67.092 80.1819 67.1426 80.1964 67.1763 80.2253V80.2398C67.682 80.5291 67.9685 80.8185 68.8619 81.3972C69.0136 81.484 69.1822 81.5853 69.3844 81.7155C69.6541 81.8746 69.9744 82.0482 70.3452 82.2508C70.3789 81.1512 69.5361 79.7479 68.4574 79.444C68.2382 79.3717 67.9517 79.4296 67.8168 79.3138C66.9572 78.8943 66.1144 78.4313 65.221 78.0696C63.1645 77.2305 61.0744 76.4492 59.0179 75.6101C58.7482 75.4943 58.4111 75.2339 58.3774 75.0169C58.3437 74.8288 58.7145 74.5829 58.9168 74.3803C59.2876 74.0186 59.6922 73.6859 60.0462 73.3097C60.8047 72.5718 61.2598 72.514 62.2543 72.9914C63.9568 73.7871 65.6929 74.5395 67.3786 75.3352C68.2888 75.7692 69.1316 76.2611 70.025 76.7096C70.4801 76.9266 70.9689 77.1147 71.4577 77.2883C71.8791 77.4185 72.3848 77.433 72.6882 77.6645C73.531 78.2577 74.3907 78.2143 75.5538 77.9104C75.0481 77.5632 74.6941 77.2305 74.2727 77.0279C72.8231 76.3335 71.3397 75.6824 69.8733 75.0024C67.6651 73.9463 65.4907 72.8612 63.2825 71.8195C62.6083 71.5012 61.9172 71.2553 61.2261 71.0093C60.9733 70.9225 60.6698 70.8791 60.4001 70.908C58.8662 71.0527 58.3437 70.9225 57.0626 70.0834C57.3323 70.7634 57.602 71.4289 57.9223 72.2391C58.0234 71.9642 58.074 71.805 58.1583 71.5736C58.7482 71.7906 58.9168 72.0076 58.664 72.5718C58.2594 73.4544 58.0571 74.3948 57.7369 75.3931C57.6357 74.6552 54.7365 74.2356 51.9721 73.9607C51.9384 73.9607 51.9047 73.9607 51.871 73.9463C51.7867 73.9463 51.7024 73.9318 51.6181 73.9318C51.3653 73.9029 51.1293 73.8884 50.8933 73.8595C50.7753 73.845 50.6573 73.845 50.5393 73.8305C50.3034 73.8161 50.1011 73.8016 49.8819 73.7727C49.8482 73.7582 49.8314 73.7582 49.8145 73.7727C49.6123 73.7582 49.4268 73.7437 49.2414 73.7293C48.6852 73.6859 48.1963 73.6425 47.8255 73.6135C47.7075 73.6135 47.6232 73.6135 47.539 73.6135C47.5052 73.6135 47.4715 73.6135 47.4547 73.5991C47.421 73.5991 47.3872 73.5991 47.3704 73.5846H47.303C47.303 73.5846 47.2187 73.5846 47.185 73.5701C47.1513 73.5556 47.1344 73.5556 47.1176 73.5556H47.0838C46.477 73.4544 45.9039 73.2518 45.3308 72.9046C44.9263 72.6731 44.3194 72.6731 43.7969 72.5863C43.3081 72.4995 42.8193 72.4416 42.2799 72.3548C42.3473 72.485 42.5158 72.6586 42.5158 72.8323C42.5327 73.0348 42.3979 73.2518 42.3136 73.4544C42.145 73.3097 41.791 73.1506 41.8079 73.0059C41.8585 72.485 41.8079 72.1378 41.0662 72.0221C40.8639 71.9931 40.7291 71.5446 40.5437 71.2553C40.0211 71.4 39.4986 71.5446 38.9761 71.7038C39.0098 71.6459 39.0435 71.588 39.0603 71.5302C38.521 71.2697 37.9816 71.0093 37.459 70.7489C36.9533 71.3276 36.5151 71.9063 35.942 72.3982C35.7397 72.5718 35.0992 72.6297 34.9306 72.4995C34.2058 71.9353 33.8518 72.4272 33.4641 72.7889C33.1102 73.1216 32.773 73.4833 32.4865 73.8595C32.3011 74.091 32.1662 74.3658 32.0988 74.6263C31.9977 75.0748 31.9808 75.5377 31.9302 76.0152C32.9584 75.6245 34.0878 75.1905 35.2172 74.7709C35.2677 74.8577 35.3183 74.959 35.3857 75.0603C34.8295 75.2773 34.2227 75.4509 33.717 75.7403C33.0764 76.102 32.2842 76.4637 31.9808 76.999C31.2054 78.3879 30.9357 79.907 30.9526 81.5419C31.256 81.4406 31.4751 81.3827 31.6942 81.3104C31.492 81.7589 31.1211 82.1784 31.1548 82.5691C31.2054 83.0031 31.6268 83.4082 31.9134 83.8856C30.7503 84.0158 31.1548 84.9562 31.256 85.3758C31.492 86.4175 30.666 86.7503 30.0423 87.2711C29.9749 87.3145 29.8569 87.329 29.8064 87.3724C29.6378 87.546 29.3681 87.7485 29.4187 87.8932C29.4524 88.0524 29.7726 88.1536 29.9581 88.2694C28.6433 88.6166 28.2556 89.7885 27.5476 90.671C26.9071 91.4523 26.5363 92.4072 26.1149 93.2897C25.9969 93.5356 26.098 93.8684 26.1149 94.1577C26.5363 94.0131 27.1262 93.9552 27.3454 93.6803C28.0533 92.8701 28.6096 91.9731 29.3007 90.9893C28.913 93.8395 28.7444 94.1144 26.7217 95.3152C26.5363 95.1705 26.3509 95.0114 26.1317 94.8522C26.0475 94.8811 25.9463 94.9101 25.8958 94.9679C25.4575 95.3875 24.9518 95.7781 24.6484 96.27C24.109 97.1236 23.3505 97.413 22.2548 97.3551C21.7323 97.3262 21.1592 97.4998 20.6367 97.6879C19.659 98.0206 19.1533 97.8326 18.8331 96.9211C19.0016 96.8777 19.187 96.8198 19.3556 96.7764C20.6367 96.4871 21.2098 95.8939 21.0075 94.7799C20.7546 93.3186 20.367 91.8718 19.9456 90.4251C19.7264 89.6872 19.4062 89.6727 18.8162 90.2225C18.4117 90.6132 16.2035 91.0472 15.6304 90.8446C15.0741 90.6565 15.0741 90.3093 15.3607 89.9332C16.0349 89.0217 16.7092 88.1247 17.3834 87.2132C18.3779 85.8967 18.8668 84.4499 18.8836 82.8584C18.9342 79.3138 18.1925 75.8416 17.6194 72.3404C17.5688 72.0221 17.2654 71.7472 17.1137 71.4289C16.9283 71.0383 16.6418 70.6332 16.6586 70.2425C16.7092 68.8392 16.8103 67.4358 16.9115 66.0469C16.8946 66.0469 16.9115 65.8877 16.9452 65.5984C16.962 65.2946 16.9957 64.9763 17.0126 64.6724C17.0126 64.6146 17.0632 64.5567 17.1474 64.5133C18.0914 59.71 21.4626 45.0541 22.356 40.5981C22.592 39.4406 22.8785 38.2832 23.2156 37.1403C23.5528 35.9973 23.9404 34.8688 24.4124 33.7548C24.6484 33.1906 25.2215 32.9446 25.98 32.7855C27.2442 32.5251 28.4747 32.0766 29.6209 31.5557C30.7672 31.0349 31.728 30.1813 33.245 30.3694V31.0638C36.9702 30.4562 40.6448 31.194 44.3194 31.194C44.5891 31.194 44.842 31.411 45.1117 31.5123C45.0611 31.6281 45.0274 31.7293 44.9768 31.8306C44.5049 31.7872 44.0329 31.7149 43.5441 31.7004C42.2461 31.6425 41.9764 31.9319 42.381 33.0459C36.3465 30.3694 30.8683 30.8902 26.098 34.999C24.227 36.6194 23.5359 38.7607 23.1314 40.9453C23.2156 40.9742 23.2831 41.0176 23.3673 41.061C24.109 40.0628 24.8507 39.079 25.6598 37.9939C25.5418 39.1368 25.4406 40.2074 25.3395 41.2636C25.4575 41.2925 25.5923 41.3215 25.7103 41.3504C26.1654 40.7717 26.6037 40.1785 27.0588 39.5998C27.16 39.6432 27.2779 39.6721 27.3959 39.7155C27.2611 40.3232 27.0588 40.9164 27.0083 41.524C26.9577 42.5223 26.9914 43.5206 26.9914 44.3886C27.4465 44.6201 28.1039 44.7937 28.1039 44.9818C28.1208 45.546 28.0702 46.2694 27.6825 46.6456C26.5026 47.8175 26.216 48.4685 26.5531 50.1034C26.8734 51.7238 27.1094 53.3586 27.5308 54.9501C27.8173 56.0352 28.3062 57.1058 28.795 58.1475C29.0141 58.6249 29.4692 59.0155 29.9075 59.3772C30.312 58.5815 30.0592 57.9305 29.385 57.5398C28.559 57.0479 28.3567 56.3245 28.4073 55.6445C28.4579 54.8344 28.8793 54.0531 29.0984 53.2429C29.2501 52.6787 29.267 52.071 29.4524 51.5212C29.6041 51.0583 29.8738 50.6098 30.1772 50.2047C30.6829 49.4668 31.1211 48.6711 31.8122 48.0779C32.6719 47.3401 33.0259 46.472 33.363 45.546C33.4304 45.3869 33.9192 45.2278 34.1215 45.2856C34.762 45.4592 35.352 45.7341 35.9251 46.009C36.4645 46.2839 36.7848 46.1103 37.1388 45.7631C38.3187 44.6201 39.4986 43.4772 40.7291 42.3631C41.2348 41.9146 41.7573 41.4806 42.7013 41.6976C43.1395 41.7989 43.7295 41.4083 44.252 41.2202C43.8475 40.9742 43.4935 40.6415 43.0384 40.4679C42.1787 40.1496 41.2516 39.9615 40.392 39.6432C39.5492 39.3249 39.0435 38.7317 38.6389 37.8926C39.684 38.0373 40.5774 38.1096 41.4202 38.3266C42.0607 38.4858 42.8698 38.2977 43.2912 39.0356C43.3924 39.1947 44.1509 39.05 44.6903 39.05C44.6229 39.1947 44.5554 39.3394 44.5049 39.4406C45.2128 39.5853 45.9039 39.7445 46.595 39.8747C47.185 39.9904 47.185 40.3521 46.9827 40.6849C46.6456 41.2781 46.7804 41.7266 47.2861 42.2185C47.5221 42.4499 47.4884 42.8695 47.5727 43.2023C47.2187 43.1733 46.8479 43.1299 46.4939 43.101C46.123 43.0721 45.7354 43.0431 45.3308 43.1299C46.2073 43.7665 47.1681 44.1137 48.0446 43.8967C48.7863 44.4465 49.6123 44.8227 50.0168 45.4158C50.4213 46.0235 50.573 46.8481 50.5393 47.5715C50.4719 48.6421 50.8427 49.5826 51.1967 50.5374C51.2304 50.6242 51.3484 50.6966 51.4664 50.8268C52.1744 50.277 51.989 49.597 51.8541 49.0038C51.4496 47.2532 51.4159 47.2532 53.4554 46.6601C53.3543 46.226 53.3206 45.7775 53.1352 45.3724C53.0172 45.1409 52.916 44.8661 52.3261 44.9239C51.871 44.9673 51.3484 44.4176 50.8427 44.1427C50.8933 44.0703 50.927 44.0125 50.9607 43.9546C51.5001 44.0125 52.0564 44.0848 52.5958 44.1571C52.6632 44.0993 52.7306 44.0559 52.7812 44.0125C52.5621 43.8099 52.2755 43.6508 52.1238 43.4193C51.9384 43.1444 51.871 42.8116 51.753 42.5078C51.8541 42.4499 51.9552 42.4065 52.0564 42.3631C52.6463 43.0865 53.2363 43.8099 53.8263 44.5478C54.4499 45.3146 54.9893 46.1392 55.6804 46.8481C56.0176 47.1954 56.6412 47.2966 57.0626 47.6005C57.4166 47.8464 57.7032 48.2081 57.9392 48.5553C58.1751 48.9026 58.3606 49.2353 58.9337 48.9604C59.0348 48.917 59.1865 48.8881 59.2876 48.9026C60.9395 49.2209 62.5914 49.5102 64.2096 49.8864C65.3727 50.1468 66.4009 50.0889 67.2437 49.3077C67.7663 48.8447 67.9854 49.0183 68.2382 49.5247C68.5248 50.1179 68.6765 50.8991 69.7721 50.6098C69.8396 50.74 69.8901 50.8123 69.8733 50.8268C69.1147 51.3766 69.1822 52.0999 69.2327 52.8523C69.2496 53.1416 69.0642 53.4744 68.8619 53.7203C68.2719 54.5161 68.4574 55.0658 69.4181 55.4565C69.6878 55.5577 70.0755 55.8616 70.0587 56.0352C69.8733 57.1058 69.6036 58.1619 69.3676 59.2181C69.2327 59.2326 69.1147 59.247 68.9799 59.2615C68.845 58.9432 68.6765 58.6394 68.5416 58.3211C67.9685 56.8743 67.4628 55.4131 66.7886 54.0097C66.5526 53.4888 65.9795 53.0403 65.457 52.6642C65.2041 52.4906 64.6816 52.5629 64.2939 52.5195C64.277 52.8089 64.1422 53.1272 64.2433 53.3731C65.3558 55.8326 67.092 58.0028 68.6933 60.2453C69.7721 61.7355 70.6318 63.3269 71.5926 64.8605C71.5083 64.9473 71.4072 65.0197 71.306 65.092C71.0363 65.0052 70.7498 64.9618 70.4969 64.8461C67.9685 63.761 65.6592 62.4444 63.9399 60.4623C63.4174 59.8547 62.8274 59.276 62.1869 58.7696C61.7655 58.4513 61.2092 58.2487 60.7035 58.0462C60.0125 57.7858 59.4562 57.4964 59.5742 56.7441C59.5742 56.6284 59.5236 56.4547 59.4225 56.3824C57.9392 55.225 56.8267 53.8071 55.6636 52.4327C55.2928 51.9842 55.0905 51.42 54.7702 50.8702C53.7251 51.2463 52.6801 51.608 51.5507 52.0131C50.7416 50.8268 49.9494 49.6838 49.2077 48.5119C48.702 47.7451 48.2975 46.9205 47.7749 46.1537C46.9153 44.8371 44.2014 44.0559 42.5496 44.5767C40.156 45.3435 38.3524 46.7903 36.7005 48.3817C35.8914 49.1485 34.8632 49.814 34.7283 50.957C34.7283 51.0149 34.6441 51.0727 34.6609 51.1017C35.0149 52.2736 35.1497 53.5467 35.8071 54.5739C36.4982 55.6445 37.6782 56.5126 38.7064 57.4096C39.3806 57.9883 40.156 58.4947 40.9145 59.0155C41.5382 59.4496 42.0439 59.8257 42.1956 60.6504C42.3304 61.4461 43.0047 62.1984 43.5946 62.8784C43.9655 63.3269 44.488 63.4716 45.2128 63.0231C45.5499 62.8061 46.6119 62.9652 46.949 63.2835C47.8592 64.0937 49.0054 64.195 50.1516 64.3686C51.045 64.4988 51.9552 64.6001 52.8149 64.8026C53.5903 64.9618 54.2308 65.309 55.1579 65.1643C55.731 65.0631 56.5232 65.5839 57.1301 65.9456C58.2426 66.5966 59.4562 66.3073 60.6361 66.3507C61.007 66.3652 61.3609 66.4086 61.7149 66.4954C61.9846 66.5532 62.2037 66.6979 62.4734 66.7847C63.2994 67.0452 64.1928 67.2043 64.9681 67.5515C67.328 68.6366 69.6204 69.794 71.9466 70.8936C73.0253 71.4144 74.1378 71.9208 75.2335 72.4127C75.3852 72.485 75.5706 72.5863 75.756 72.5863C76.5651 72.5863 77.0034 72.9335 77.1719 73.6135C77.2394 73.8884 77.5259 74.1199 77.6945 74.3803C77.8125 74.5684 77.8968 74.7854 77.9979 74.988C77.7451 75.0458 77.4754 75.0892 77.2394 75.1905C76.818 75.3496 76.2617 75.4654 76.0257 75.7547C75.6717 76.1743 75.9583 76.5794 76.4471 76.9122C76.7 77.0858 76.8517 77.3896 77.0202 77.6356C77.3068 78.0985 77.6102 78.4747 78.3182 78.576C78.7227 78.6338 79.3295 78.9811 79.3801 79.2559C79.6329 80.6304 80.8803 80.4134 81.9085 80.5146C82.549 80.5725 83.2233 80.5725 83.8638 80.5436C84.3021 80.5146 84.7066 80.3989 85.128 80.3266C85.4314 80.2687 85.718 80.2253 86.0214 80.1674C86.5271 80.0517 87.0833 79.9938 87.5384 79.7768C88.1115 79.5164 88.5667 79.4874 88.9206 79.9649C89.3757 80.5581 89.7971 81.1802 90.2017 81.8023C90.7916 82.6993 91.3479 83.5818 92.4604 84.1605C92.8987 84.392 93.0335 85.1009 93.2695 85.5928C94.1797 87.546 95.8653 88.5443 98.2083 89.1519C100.18 89.6583 101.95 90.7144 103.821 91.5102C104.681 91.8718 105.558 92.2046 106.434 92.5374L106.451 92.5229Z" fill="#B4BEFE"/>
</g>
<defs>
<clipPath id="clip0_1204_687">
<rect width="105.553" height="124.611" fill="white" transform="translate(0.723633)"/>
</clipPath>
</defs>
</svg>
