<svg width="40" height="40" viewBox="0 0 40 40" fill="none" xmlns="http://www.w3.org/2000/svg">
<g clip-path="url(#clip0_751_617)">
<path fill-rule="evenodd" clip-rule="evenodd" d="M34.5 20C34.5 27.732 28.0081 34 20 34C11.9919 34 5.5 27.732 5.5 20C5.5 12.268 11.9919 6 20 6C28.0081 6 34.5 12.268 34.5 20ZM20.5196 16.3354C19.1093 16.9018 16.2906 18.0741 12.0635 19.8522C11.3771 20.1158 11.0176 20.3736 10.9848 20.6257C10.9295 21.0517 11.4821 21.2195 12.2346 21.448C12.337 21.4791 12.443 21.5113 12.5518 21.5454C13.2921 21.7777 14.288 22.0496 14.8057 22.0604C15.2753 22.0702 15.7995 21.8832 16.3782 21.4996C20.3277 18.9255 22.3664 17.6244 22.4944 17.5964C22.5847 17.5766 22.7098 17.5517 22.7946 17.6245C22.8794 17.6972 22.871 17.835 22.8621 17.872C22.8073 18.0973 20.6382 20.0444 19.5156 21.0521C19.1657 21.3662 18.9174 21.589 18.8667 21.6399C18.753 21.7539 18.6372 21.8617 18.5258 21.9654C17.838 22.6055 17.3222 23.0856 18.5544 23.8696C19.1465 24.2463 19.6203 24.5579 20.093 24.8687C20.6092 25.2081 21.1241 25.5466 21.7903 25.9683C21.96 26.0757 22.1221 26.1873 22.28 26.2959C22.8808 26.7095 23.4205 27.081 24.0873 27.0217C24.4748 26.9873 24.875 26.6355 25.0782 25.5864C25.5586 23.107 26.5028 17.7349 26.721 15.5211C26.7401 15.3272 26.7161 15.079 26.6968 14.97C26.6775 14.861 26.6371 14.7058 26.4904 14.5909C26.3167 14.4548 26.0485 14.4261 25.9285 14.4281C25.3832 14.4374 24.5464 14.7183 20.5196 16.3354Z" fill="#7F849C"/>
</g>
<defs>
<clipPath id="clip0_751_617">
<rect width="29" height="28" fill="white" transform="translate(5.5 6)"/>
</clipPath>
</defs>
</svg>
