<svg width="40" height="40" viewBox="0 0 40 40" fill="none" xmlns="http://www.w3.org/2000/svg">
<g clip-path="url(#clip0_751_621)">
<path fill-rule="evenodd" clip-rule="evenodd" d="M7.53854 7.96824C5.5 9.93648 5.5 13.1043 5.5 19.44V20.56C5.5 26.8957 5.5 30.0635 7.53854 32.0318C9.57707 34 12.858 34 19.42 34H20.58C27.142 34 30.4229 34 32.4615 32.0318C34.5 30.0635 34.5 26.8957 34.5 20.56V19.44C34.5 13.1043 34.5 9.93648 32.4615 7.96824C30.4229 6 27.142 6 20.58 6H19.42C12.858 6 9.57707 6 7.53854 7.96824ZM10.3938 14.5167C10.5509 21.7967 14.3209 26.1717 20.9305 26.1717H21.3051V22.0067C23.7339 22.2401 25.5704 23.9551 26.3075 26.1717H29.7392C28.7967 22.8584 26.3195 21.0267 24.7729 20.3267C26.3195 19.4634 28.4945 17.3634 29.0141 14.5167H25.8965C25.2199 16.8267 23.2143 18.9267 21.3051 19.1251V14.5167H18.1875V22.5901C16.2542 22.1234 13.8134 19.8601 13.7046 14.5167H10.3938Z" fill="#7F849C"/>
</g>
<defs>
<clipPath id="clip0_751_621">
<rect width="29" height="28" fill="white" transform="translate(5.5 6)"/>
</clipPath>
</defs>
</svg>
