<svg width="62" height="65" viewBox="0 0 62 65" fill="none" xmlns="http://www.w3.org/2000/svg">
<g clip-path="url(#clip0_410_309)">
<path d="M0 31.2C0 16.4921 0 9.13827 4.35825 4.56913C8.7165 0 15.731 0 29.76 0H32.24C46.269 0 53.2834 0 57.6418 4.56913C62 9.13827 62 16.4921 62 31.2V33.8C62 48.5079 62 55.8617 57.6418 60.4309C53.2834 65 46.269 65 32.24 65H29.76C15.731 65 8.7165 65 4.35825 60.4309C0 55.8617 0 48.5079 0 33.8V31.2Z" fill="#0077FF"/>
<path d="M32.9892 46.8277C18.8584 46.8277 10.7985 36.6715 10.4626 19.7715H17.541C17.7735 32.1757 22.9917 37.4298 27.125 38.5132V19.7715H33.7903V30.4694C37.8719 30.009 42.1598 25.134 43.6064 19.7715H50.2716C49.1607 26.3798 44.5107 31.2548 41.2041 33.259C44.5107 34.884 49.8068 39.1361 51.8218 46.8277H44.4849C42.9091 41.6819 38.9828 37.7007 33.7903 37.159V46.8277H32.9892Z" fill="white"/>
</g>
<defs>
<clipPath id="clip0_410_309">
<rect width="62" height="65" fill="white"/>
</clipPath>
</defs>
</svg>
