<svg width="108" height="107" viewBox="0 0 108 107" fill="none" xmlns="http://www.w3.org/2000/svg">
<g clip-path="url(#clip0_60_221)">
<path d="M36.1735 107C45.9825 107 53.9436 99.0105 53.9436 89.1665V71.333H36.1735C26.3644 71.333 18.4033 79.3225 18.4033 89.1665C18.4033 99.0105 26.3644 107 36.1735 107Z" fill="#0ACF83"/>
<path d="M18.4033 53.4995C18.4033 43.6555 26.3644 35.666 36.1735 35.666H53.9436V71.3325H36.1735C26.3644 71.333 18.4033 63.3435 18.4033 53.4995Z" fill="#A259FF"/>
<path d="M18.4033 17.8335C18.4033 7.98948 26.3644 0 36.1735 0H53.9436V35.6665H36.1735C26.3644 35.6665 18.4033 27.6775 18.4033 17.8335Z" fill="#F24E1E"/>
<path d="M53.9425 0H71.7127C81.5217 0 89.4828 7.98948 89.4828 17.8335C89.4828 27.6775 81.5217 35.6665 71.7127 35.6665H53.9425V0Z" fill="#FF7262"/>
<path d="M89.4828 53.4995C89.4828 63.3435 81.5217 71.333 71.7127 71.333C61.9036 71.333 53.9425 63.3435 53.9425 53.4995C53.9425 43.6555 61.9036 35.666 71.7127 35.666C81.5217 35.666 89.4828 43.6555 89.4828 53.4995Z" fill="#1ABCFE"/>
</g>
<defs>
<clipPath id="clip0_60_221">
<rect width="106.619" height="107" fill="white" transform="translate(0.633457)"/>
</clipPath>
</defs>
</svg>
