<svg width="108" height="107" viewBox="0 0 108 107" fill="none" xmlns="http://www.w3.org/2000/svg">
<path opacity="0.3" d="M102.934 55.6396C102.934 81.5978 81.8878 102.72 56.022 102.72C30.1562 102.72 9.10955 81.5978 9.10955 55.6396C9.10955 48.3957 10.7728 41.2802 13.9501 34.8281L6.42275 27.0599C2.68042 23.1758 2.74439 16.8949 6.52937 13.0964C8.36322 11.2453 10.9327 10.186 13.5769 10.186C15.4747 10.186 17.3086 10.721 18.8759 11.7161L28.269 17.7188C36.2868 11.791 45.9891 8.55957 56.022 8.55957C81.8878 8.55957 102.934 29.6814 102.934 55.6396Z" fill="black"/>
<path d="M100.802 53.4999C100.802 79.4581 79.7554 100.58 53.8896 100.58C28.0238 100.58 6.97717 79.4581 6.97717 53.4999C6.97717 46.256 8.64043 39.1405 11.8177 32.6884L4.29037 24.9202C0.548031 21.0361 0.612003 14.7552 4.39698 10.9567C6.23083 9.10562 8.80036 8.04632 11.4445 8.04632C13.3423 8.04632 15.1762 8.58132 16.7435 9.57642L26.1366 15.5791C34.1544 9.65132 43.8568 6.41992 53.8896 6.41992C79.7554 6.41992 100.802 27.5417 100.802 53.4999Z" fill="#F2F2F2"/>
<path d="M21.0424 30.6328C16.5484 37.1213 13.9074 44.9986 13.9074 53.4998C13.9074 75.6606 31.8077 93.6248 53.8896 93.6248C57.9262 93.6248 61.821 93.0181 65.494 91.9021C81.2129 74.9522 65.654 62.0009 59.4871 55.2385C61.1802 55.5542 62.7625 55.7307 64.2626 55.8067C58.4678 54.7602 49.8871 52.5764 42.5613 48.1498C39.2625 46.1564 29.6135 38.0319 21.0424 30.6328Z" fill="#9AD4FC"/>
<path d="M87.447 31.6977C80.3205 20.6735 67.958 13.375 53.8896 13.375C40.2786 13.375 28.2637 20.2059 21.0424 30.633C29.6135 38.0321 39.2625 46.1566 42.5613 48.15C49.8872 52.5766 58.4679 54.7605 64.2626 55.8069C81.7141 56.6854 86.5151 42.1537 87.447 31.6977Z" fill="#F4A3BE"/>
<path d="M93.8718 53.4996C93.8718 45.4585 91.5059 37.975 87.4469 31.6973C86.4351 43.0532 80.8728 59.2294 59.4871 55.2383C65.654 62.0007 81.214 74.952 65.494 91.9019C81.9155 86.9103 93.8718 71.6093 93.8718 53.4996Z" fill="#FEDEB3"/>
<path d="M80.5444 68.7798C80.5444 72.9207 79.201 76.976 77.0686 80.1111C74.9896 82.1441 72.644 83.8882 70.0851 85.3006C65.4365 87.8793 60.1055 89.3452 54.4227 89.3452C36.4681 89.3452 21.9039 74.729 21.9039 56.7102C21.9039 53.8212 22.277 51.0178 22.9807 48.3535C23.2259 61.8783 34.2291 72.7602 47.759 72.7602C55.3183 72.7602 62.0993 69.3576 66.6413 63.9969C67.0038 63.5689 67.3556 63.1302 67.6862 62.6701L67.6968 62.6594C69.0616 61.3005 70.938 60.4552 73.0171 60.4552C76.7701 60.4552 79.8941 63.2265 80.4485 66.8431V66.8859C80.5125 67.2497 80.5444 68.7798 80.5444 68.7798Z" fill="#9AA2E6"/>
<path d="M60.8188 57.5859C58.4764 60.5883 51.0344 62.2575 42.3428 53.063C41.5346 52.208 11.4232 19.893 11.4232 19.893C10.5063 18.9428 8.10415 16.1886 9.0424 15.247C9.50832 14.7794 10.1256 14.543 10.744 14.543C11.194 14.543 13.1579 16.4304 13.5545 16.683C13.5545 16.683 52.0718 39.6612 53.0036 40.223C63.6656 46.6419 63.1612 54.5909 60.8188 57.5859Z" fill="#707CC0"/>
<path d="M53.8896 11.7695C43.4089 11.7695 33.8132 15.6857 26.4991 22.1485L13.8861 14.0914C12.1269 12.9679 9.66395 13.2247 8.18194 14.7227C6.41206 16.4989 6.39074 19.3986 8.12863 21.2069L18.3961 31.7999C14.5364 38.1236 12.3081 45.5601 12.3081 53.4995C12.3081 76.5045 30.9665 95.2295 53.8896 95.2295C76.8127 95.2295 95.4711 76.5045 95.4711 53.4995C95.4711 30.4945 76.8127 11.7695 53.8896 11.7695ZM53.0409 92.0099C32.8547 91.5701 16.2125 75.0814 15.5291 54.8295C15.2753 47.3032 17.1859 40.2251 20.699 34.186C20.9762 33.7099 21.262 33.2391 21.5563 32.7747C22.0808 31.9476 21.9444 30.8615 21.2631 30.1586L20.2086 29.0714L10.4209 18.9706C9.88785 18.4249 9.89851 17.5368 10.4423 16.9911C10.8901 16.5417 11.6471 16.4668 12.1802 16.7985L24.1109 24.4169L25.4607 25.2804C26.2742 25.8004 27.3318 25.7052 28.043 25.0514C28.4567 24.6716 28.8799 24.3003 29.3139 23.9354C36.9457 17.539 47.0809 14.0465 58.0051 15.1967C75.8308 17.0725 90.1615 31.4286 92.0508 49.3158C94.5222 72.7114 75.9726 92.5096 53.0409 92.0099Z" fill="#40396E"/>
<path d="M53.8896 11.7695C43.4089 11.7695 33.8132 15.6857 26.4991 22.1485L13.8861 14.0914C12.1269 12.9679 9.66395 13.2247 8.18194 14.7227C6.41206 16.4989 6.39074 19.3986 8.12863 21.2069L18.3961 31.7999C14.5364 38.1236 12.3081 45.5601 12.3081 53.4995C12.3081 76.5045 30.9665 95.2295 53.8896 95.2295C76.8127 95.2295 95.4711 76.5045 95.4711 53.4995C95.4711 30.4945 76.8127 11.7695 53.8896 11.7695ZM53.0409 92.0099C32.8547 91.5701 16.2125 75.0814 15.5291 54.8295C15.2753 47.3032 17.1859 40.2251 20.699 34.186C20.9762 33.7099 21.262 33.2391 21.5563 32.7747C22.0808 31.9476 21.9444 30.8615 21.2631 30.1586L20.2086 29.0714L10.4209 18.9706C9.88785 18.4249 9.89851 17.5368 10.4423 16.9911C10.8901 16.5417 11.6471 16.4668 12.1802 16.7985L24.1109 24.4169L25.4607 25.2804C26.2742 25.8004 27.3318 25.7052 28.043 25.0514C28.4567 24.6716 28.8799 24.3003 29.3139 23.9354C36.9457 17.539 47.0809 14.0465 58.0051 15.1967C75.8308 17.0725 90.1615 31.4286 92.0508 49.3158C94.5222 72.7114 75.9726 92.5096 53.0409 92.0099Z" fill="#40396E"/>
<path d="M66.8172 66.8754L53.8896 57.7804C53.8896 57.7804 53.3565 53.0991 59.2206 51.3604C65.3512 56.7104 72.6813 62.0604 72.6813 62.0604L66.8172 66.8754Z" fill="#F2F2F2"/>
<path d="M80.5444 68.7797C80.5444 72.9206 79.201 76.9759 77.0686 80.111C74.9896 82.144 72.6439 83.8881 70.0851 85.3005C70.9274 83.9844 71.7057 81.6839 71.7057 80.1431C71.7057 77.8533 70.6715 75.7989 69.0509 74.4186C68.795 74.2046 68.667 74.1832 68.1979 73.8087C66.5453 72.4391 65.4791 70.3526 65.4791 68.0093C65.4791 66.5327 65.8949 65.1524 66.6413 63.9968C66.9291 63.5153 67.281 63.0659 67.6861 62.67L67.6968 62.6593C69.0615 61.3004 70.938 60.4551 73.0171 60.4551C76.7701 60.4551 79.8941 63.2264 80.4485 66.843V66.8858C80.5124 67.2496 80.5444 68.7797 80.5444 68.7797Z" fill="#707CC0"/>
</svg>
